<svg xmlns="http://www.w3.org/2000/svg" width="403" height="150" viewBox="0 0 403 150">
  <defs>
    <linearGradient id="logo-visa-a" x1="9.052%" x2="93.339%" y1="54.859%" y2="44.909%">
      <stop offset="0%" stop-color="#222357"/>
      <stop offset="100%" stop-color="#254AA5"/>
    </linearGradient>
  </defs>
  <g fill="none" fill-rule="evenodd" transform="translate(15 15)">
    <path fill="#FFF" fill-rule="nonzero" stroke="#FFF" stroke-linejoin="round" stroke-width="30" d="M243.824305,0 C255.439253,0 264.769293,2.52185233 272.027236,5.15529105 L266.729386,29.7600893 C253.232749,23.5670448 241.326587,24.0022317 237.014384,24.5713223 C228.300372,25.6983448 224.324185,30.1283243 224.22338,34.2793379 C223.932166,47.9709875 266.583779,49.6671006 266.460573,80.2975637 C266.348568,104.433699 245.63879,120 213.986097,120 C200.500661,119.877255 187.496847,117.065278 180.474116,113.840431 L185.928773,88.409894 C192.929103,91.6682165 201.732719,95.975451 216.875833,95.7411196 C225.556243,95.6072159 234.83028,92.1703552 234.919885,84.3816254 C234.964687,79.2932862 231.022101,75.6444114 219.283947,69.9535057 C207.859408,64.4076623 192.693892,55.0790404 192.906702,38.3633997 C193.07471,15.778315 214.030899,0 243.824305,0 Z M348.672452,1.80769946 L373,117.879859 L345.121885,117.879859 L341.470512,100.550493 L302.817488,100.550493 L296.522791,117.879859 L264.892499,117.879859 L310.109032,10.3217407 C312.281935,5.16644969 317.154165,1.80769946 322.933638,1.80769946 L348.672452,1.80769946 Z M52.0040538,1.63442645 C58.5339619,1.63442645 64.4142394,5.95798832 65.9039097,13.4462192 L78.5941085,80.5282872 L109.966789,1.63442645 L141.619482,1.63442645 L92.7851781,117.546 L60.930875,117.546 L36.8945409,25.0462911 C35.4384722,19.3521155 34.1728124,17.2571938 29.7374032,14.8614057 C22.4906612,10.938999 10.5284968,7.272886 5.68434189e-13,4.99967306 L0.716833824,1.63442645 L52.0040538,1.63442645 Z M184.685514,1.63442645 L159.764338,117.546 L129.623716,117.546 L154.556093,1.63442645 L184.685514,1.63442645 Z M327.357846,33.1634741 L311.486697,76.7491166 L336.486277,76.7491166 L327.357846,33.1634741 Z" opacity=".895"/>
    <path fill="url(#logo-visa-a)" d="M243.824305,0 C255.439253,0 264.769293,2.52185233 272.027236,5.15529105 L266.729386,29.7600893 C253.232749,23.5670448 241.326587,24.0022317 237.014384,24.5713223 C228.300372,25.6983448 224.324185,30.1283243 224.22338,34.2793379 C223.932166,47.9709875 266.583779,49.6671006 266.460573,80.2975637 C266.348568,104.433699 245.63879,120 213.986097,120 C200.500661,119.877255 187.496847,117.065278 180.474116,113.840431 L185.928773,88.409894 C192.929103,91.6682165 201.732719,95.975451 216.875833,95.7411196 C225.556243,95.6072159 234.83028,92.1703552 234.919885,84.3816254 C234.964687,79.2932862 231.022101,75.6444114 219.283947,69.9535057 C207.859408,64.4076623 192.693892,55.0790404 192.906702,38.3633997 C193.07471,15.778315 214.030899,0 243.824305,0 Z M348.672452,1.80769946 L373,117.879859 L345.121885,117.879859 L341.470512,100.550493 L302.817488,100.550493 L296.522791,117.879859 L264.892499,117.879859 L310.109032,10.3217407 C312.281935,5.16644969 317.154165,1.80769946 322.933638,1.80769946 L348.672452,1.80769946 Z M52.0040538,1.63442645 C58.5339619,1.63442645 64.4142394,5.95798832 65.9039097,13.4462192 L78.5941085,80.5282872 L109.966789,1.63442645 L141.619482,1.63442645 L92.7851781,117.546 L60.930875,117.546 L36.8945409,25.0462911 C35.4384722,19.3521155 34.1728124,17.2571938 29.7374032,14.8614057 C22.4906612,10.938999 10.5284968,7.272886 5.68434189e-13,4.99967306 L0.716833824,1.63442645 L52.0040538,1.63442645 Z M184.685514,1.63442645 L159.764338,117.546 L129.623716,117.546 L154.556093,1.63442645 L184.685514,1.63442645 Z M327.357846,33.1634741 L311.486697,76.7491166 L336.486277,76.7491166 L327.357846,33.1634741 Z"/>
  </g>
</svg>
