<svg xmlns="http://www.w3.org/2000/svg" width="455" height="150" viewBox="0 0 455 150">
  <defs>
    <linearGradient id="logo-mir-a" x1="-.02%" x2="99.97%" y1="50.03%" y2="50.03%">
      <stop offset="0%" stop-color="#02AFFF"/>
      <stop offset="100%" stop-color="#1F5BDE"/>
    </linearGradient>
  </defs>
  <g fill="none" transform="translate(15 15)">
    <path fill="#FFF" stroke="#FFF" stroke-linejoin="round" stroke-width="30" d="M235.093391 12.6122449L208.469828 70.5306122 205.783046 70.5306122 205.783046 0 167.923851 0 167.923851 119.387755 200.043103 119.387755C208.469828 119.387755 216.163793 114.489796 219.70546 106.77551L246.329023 48.8571429 249.015805 48.8571429 249.015805 119.387755 286.875 119.387755 286.875 0 254.755747 0C246.329023 0 238.635057 4.89795918 235.093391 12.6122449M302.62931 56.6938776L302.62931 119.387755 340.732759 119.387755 340.732759 84.122449 379.08046 84.122449C399.109195 84.122449 416.206897 72.7346939 422.801724 56.6938776L302.62931 56.6938776zM302.262931 9.30612245C302.385057 9.91836735 302.62931 10.6530612 302.751437 11.2653061 302.873563 11.5102041 302.873563 11.755102 302.99569 12.122449 309.83477 33.7959184 329.985632 49.4693878 353.800287 49.4693878L424.145115 49.4693878C424.633621 47.0204082 424.877874 44.5714286 424.877874 42 424.877874 29.755102 419.626437 18.7346939 411.199713 11.0204082 403.75 4.16326531 393.857759 0 382.866379 0L300.91954 0C301.041667 3.18367347 301.530172 6.36734694 302.262931 9.30612245zM58.6206897 15.6734694L74.4971264 70.5306122 77.183908 70.5306122 92.9382184 15.6734694C95.625 6.36734694 104.051724 0 113.699713 0L151.558908 0 151.558908 119.387755 113.699713 119.387755 113.699713 48.8571429 111.012931 48.8571429 89.2744253 119.387755 62.2844828 119.387755 40.545977 48.8571429 37.8591954 48.8571429 37.8591954 119.387755 0 119.387755 0 0 37.8591954 0C47.5071839 0 55.933908 6.36734694 58.6206897 15.6734694" opacity=".895"/>
    <path fill="#006848" d="M235.093391 12.6122449L208.469828 70.5306122 205.783046 70.5306122 205.783046-3.55271368e-14 167.923851-3.55271368e-14 167.923851 119.387755 200.043103 119.387755C208.469828 119.387755 216.163793 114.489796 219.70546 106.77551L246.329023 48.8571429 249.015805 48.8571429 249.015805 119.387755 286.875 119.387755 286.875-3.55271368e-14 254.755747-3.55271368e-14C246.329023-3.55271368e-14 238.635057 4.89795918 235.093391 12.6122449M302.62931 56.6938776L302.62931 119.387755 340.732759 119.387755 340.732759 84.122449 379.08046 84.122449C399.109195 84.122449 416.206897 72.7346939 422.801724 56.6938776L302.62931 56.6938776z"/>
    <path fill="url(#logo-mir-a)" d="M302.262931,9.30612245 C302.385057,9.91836735 302.62931,10.6530612 302.751437,11.2653061 C302.873563,11.5102041 302.873563,11.755102 302.99569,12.122449 C309.83477,33.7959184 329.985632,49.4693878 353.800287,49.4693878 L424.145115,49.4693878 C424.633621,47.0204082 424.877874,44.5714286 424.877874,42 C424.877874,29.755102 419.626437,18.7346939 411.199713,11.0204082 C403.75,4.16326531 393.857759,-1.77635684e-14 382.866379,-1.77635684e-14 L300.91954,-1.77635684e-14 C301.041667,3.18367347 301.530172,6.36734694 302.262931,9.30612245 Z"/>
    <path fill="#006848" d="M58.6206897,15.6734694 L74.4971264,70.5306122 L77.183908,70.5306122 L92.9382184,15.6734694 C95.625,6.36734694 104.051724,0 113.699713,0 L151.558908,0 L151.558908,119.387755 L113.699713,119.387755 L113.699713,48.8571429 L111.012931,48.8571429 L89.2744253,119.387755 L62.2844828,119.387755 L40.545977,48.8571429 L37.8591954,48.8571429 L37.8591954,119.387755 L0,119.387755 L0,0 L37.8591954,0 C47.5071839,0 55.933908,6.36734694 58.6206897,15.6734694"/>
  </g>
</svg>
