<svg xmlns="http://www.w3.org/2000/svg" width="274" height="180" viewBox="0 0 274 180">
  <g fill="none" transform="translate(15 15)">
    <g fill="#FFF" stroke="#FFF" stroke-linejoin="round" stroke-width="30" opacity=".895">
      <polygon points="154.7 133.9 88.9 133.9 88.9 16 154.7 16"/>
      <path d="M168.29138-8.8817842e-14C150.734131-8.8817842e-14 134.578973 5.9914202 121.773522 16.0295514 139.282918 29.7569103 150.523578 51.0581489 150.523578 74.9713988 150.523578 98.8846487 139.282918 120.185887 121.773522 133.913246 134.578973 143.951377 150.734131 149.942798 168.29138 149.942798 209.856457 149.942798 243.549723 116.377498 243.549723 74.9713988 243.549723 33.5652991 209.856457-8.8817842e-14 168.29138-8.8817842e-14zM121.771415 133.913246C108.97075 143.951377 92.8155922 149.942798 75.2583429 149.942798 33.6932659 149.942798 2.22044605e-14 116.377498 2.22044605e-14 74.9713988 2.22044605e-14 33.5652991 33.6932659-8.8817842e-14 75.2583429-8.8817842e-14 92.8155922-8.8817842e-14 108.97075 5.9914202 121.771415 16.0295514 104.266804 29.7569103 93.0261452 51.0581489 93.0261452 74.9713988 93.0261452 98.8846487 104.266804 120.185887 121.771415 133.913246z"/>
    </g>
    <polygon fill="#FF5F00" points="154.7 133.9 88.9 133.9 88.9 16 154.7 16"/>
    <path fill="#F79E1B" d="M168.29138,-8.8817842e-14 C150.734131,-8.8817842e-14 134.578973,5.9914202 121.773522,16.0295514 C139.282918,29.7569103 150.523578,51.0581489 150.523578,74.9713988 C150.523578,98.8846487 139.282918,120.185887 121.773522,133.913246 C134.578973,143.951377 150.734131,149.942798 168.29138,149.942798 C209.856457,149.942798 243.549723,116.377498 243.549723,74.9713988 C243.549723,33.5652991 209.856457,-8.8817842e-14 168.29138,-8.8817842e-14 Z"/>
    <path fill="#EB001B" d="M121.771415,133.913246 C108.97075,143.951377 92.8155922,149.942798 75.2583429,149.942798 C33.6932659,149.942798 2.22044605e-14,116.377498 2.22044605e-14,74.9713988 C2.22044605e-14,33.5652991 33.6932659,-8.8817842e-14 75.2583429,-8.8817842e-14 C92.8155922,-8.8817842e-14 108.97075,5.9914202 121.771415,16.0295514 C104.266804,29.7569103 93.0261452,51.0581489 93.0261452,74.9713988 C93.0261452,98.8846487 104.266804,120.185887 121.771415,133.913246 Z"/>
  </g>
</svg>
